<svg width="251" height="220" viewBox="0 0 251 220" fill="none" xmlns="http://www.w3.org/2000/svg">
  <path d="M235.312 41.9048H26.1458C21.9852 41.9048 17.9951 40.2492 15.0531 37.3022C12.1111 34.3552 10.4583 30.3582 10.4583 26.1905C10.4583 22.0228 12.1111 18.0258 15.0531 15.0788C17.9951 12.1318 21.9852 10.4762 26.1458 10.4762H203.937C205.324 10.4762 206.654 9.92432 207.635 8.94199C208.616 7.95965 209.167 6.62732 209.167 5.2381C209.167 3.84887 208.616 2.51654 207.635 1.5342C206.654 0.55187 205.324 0 203.937 0H26.1458C19.2139 0.00762561 12.568 2.76942 7.66635 7.67944C2.7647 12.5895 0.00761261 19.2467 0 26.1905V193.81C0.00761261 200.753 2.7647 207.411 7.66635 212.321C12.568 217.231 19.2139 219.992 26.1458 220H235.312C239.472 219.995 243.459 218.338 246.4 215.392C249.341 212.446 250.995 208.452 251 204.286V57.619C250.995 53.4527 249.341 49.4584 246.4 46.5123C243.459 43.5663 239.472 41.9093 235.312 41.9048ZM240.542 204.286C240.54 205.675 239.989 207.006 239.009 207.988C238.028 208.97 236.699 209.522 235.312 209.524H26.1458C21.9866 209.519 17.9991 207.862 15.0581 204.916C12.1171 201.97 10.4628 197.976 10.4583 193.81V47.1298C14.9778 50.5433 20.4856 52.387 26.1458 52.381H235.312C236.699 52.3823 238.028 52.9347 239.009 53.9167C239.989 54.8987 240.54 56.2302 240.542 57.619V204.286ZM198.708 130.952C198.708 133.024 198.095 135.05 196.946 136.773C195.797 138.495 194.163 139.838 192.252 140.631C190.341 141.424 188.238 141.632 186.21 141.227C184.181 140.823 182.317 139.825 180.855 138.36C179.392 136.895 178.396 135.028 177.993 132.996C177.589 130.964 177.796 128.858 178.588 126.943C179.379 125.029 180.72 123.393 182.44 122.242C184.16 121.091 186.182 120.476 188.25 120.476C191.024 120.476 193.684 121.58 195.645 123.545C197.606 125.509 198.708 128.174 198.708 130.952Z" fill="#B8B8D1"/>
</svg>

